Coordinates
version=1
nRows=11
nColumns=40
inDegrees=yes

Units are S.I. units (second, meters, Newtons, ...)
Angles are in degrees.

endheader
time	pelvis_tilt	pelvis_list	pelvis_rotation	pelvis_tx	pelvis_ty	pelvis_tz	hip_flexion_r	hip_adduction_r	hip_rotation_r	knee_angle_r	knee_angle_r_beta	ankle_angle_r	subtalar_angle_r	mtp_angle_r	hip_flexion_l	hip_adduction_l	hip_rotation_l	knee_angle_l	knee_angle_l_beta	ankle_angle_l	subtalar_angle_l	mtp_angle_l	lumbar_extension	lumbar_bending	lumbar_rotation	arm_flex_r	arm_add_r	arm_rot_r	elbow_flex_r	pro_sup_r	wrist_flex_r	wrist_dev_r	arm_flex_l	arm_add_l	arm_rot_l	elbow_flex_l	pro_sup_l	wrist_flex_l	wrist_dev_l
     30.81500000	     -5.12641920	     -6.28191624	      3.92344543	      1.02775467	      0.92734757	      0.50762982	     13.55831171	      4.11362799	    -19.46107797	     16.25989591	     16.25989591	     10.89255250	      2.98391216	     -4.90824402	     44.07148181	    -14.34730647	      3.06789302	     51.04407639	     51.04407639	     11.37564312	    -18.57574674	     17.20141321	    -14.11985017	      7.26535573	      6.29100185	     29.30602070	    -16.29244521	      0.42201763	     41.11604890	     46.01886263	      0.00000000	      0.00000000	      0.63735554	     -8.28924258	     -1.03723124	     33.24596595	     46.99533434	      0.00000000	      0.00000000
     30.82657143	     -5.21892615	     -6.52984001	      3.79894749	      1.02596234	      0.92678523	      0.50757465	     13.25422269	      4.42297950	    -19.34996784	     16.32460499	     16.32460499	     11.32986799	      3.00572166	     -5.12539761	     44.44049355	    -14.29263015	      3.55276729	     48.10719769	     48.10719769	     11.10001495	    -17.69763905	     17.49487899	    -13.93704052	      7.56172091	      7.23055931	     31.26499187	    -16.79474651	      0.30372499	     41.93482210	     46.00600787	      0.00000000	      0.00000000	     -0.95070824	     -8.25824965	     -1.03144467	     32.44077242	     46.96533576	      0.00000000	      0.00000000
     30.83814286	     -5.11039034	     -6.45427041	      3.75935552	      1.02434343	      0.92698114	      0.50718571	     12.34083601	      4.53786557	    -18.99864294	     15.65668072	     15.65668072	     11.55358180	      2.96990469	     -5.18220227	     44.18313564	    -13.84149628	      3.95554511	     44.75493331	     44.75493331	     10.18381150	    -17.11466794	     17.00084418	    -14.18332283	      7.47625147	      6.05470045	     34.12363228	    -15.66662721	      0.76986518	     44.58875037	     45.89442325	      0.00000000	      0.00000000	     -2.86312835	     -8.30000951	     -0.76509803	     29.64970188	     46.88263172	      0.00000000	      0.00000000
     30.84971429	     -5.20863078	     -6.61582341	      3.62518359	      1.02287031	      0.92653379	      0.50687720	     11.78690029	      4.85699636	    -18.62009325	     15.22571141	     15.22571141	     11.62635036	      2.73949869	     -5.85858549	     44.04944261	    -13.76636758	      4.25621364	     41.33432825	     41.33432825	      8.52801702	    -15.97623499	     13.45794131	    -14.04826277	      7.69271658	      6.54340467	     35.61058019	    -16.53367720	      3.05733637	     48.20057697	     45.64411211	      0.00000000	      0.00000000	     -3.37866463	     -7.96860780	     -0.43996297	     25.63691951	     46.78058131	      0.00000000	      0.00000000
     30.86128571	     -5.18896828	     -6.69265545	      3.51038402	      1.02160856	      0.92632328	      0.50640772	     11.10188109	      5.04990251	    -18.35816109	     14.87245998	     14.87245998	     11.95776724	      2.77988072	     -5.98957506	     43.74852736	    -13.58227176	      4.58519007	     38.20951059	     38.20951059	      8.28612965	    -14.39866686	     13.46626147	    -14.06661865	      7.78234991	      6.33776688	     37.80142612	    -16.00774312	      3.13776666	     50.35963366	     45.57186079	      0.00000000	      0.00000000	     -5.24744178	     -7.94450809	     -0.35119540	     24.67211967	     46.71798400	      0.00000000	      0.00000000
     30.87285714	     -5.31484482	     -6.72786222	      3.36859984	      1.02045017	      0.92590296	      0.50581246	     10.59226494	      5.16570994	    -18.06476761	     14.58042489	     14.58042489	     12.28922820	      2.82479104	     -6.11490585	     43.47350420	    -13.37193248	      4.77958740	     35.17105987	     35.17105987	      8.17279212	    -12.75410031	     13.67276381	    -13.86124180	      7.80395210	      6.46460030	     39.80844665	    -15.72402509	      3.18247755	     52.13124223	     45.51615014	      0.00000000	      0.00000000	     -6.85535271	     -7.86508115	     -0.27301902	     23.91828141	     46.66834888	      0.00000000	      0.00000000
     30.88442857	     -5.25401860	     -6.91064364	      3.25795521	      1.01978364	      0.92564006	      0.50527724	      9.70344984	      5.54034230	    -17.62810307	     13.94200285	     13.94200285	     12.36878252	      2.57795608	     -6.51591974	     42.99374928	    -13.41284334	      4.71860263	     32.39303652	     32.39303652	      7.81303674	    -10.92216717	     12.95321046	    -13.93235067	      7.99676778	      6.38567607	     40.69264739	    -15.94239807	      4.55803587	     57.90991520	     45.25909839	      0.00000000	      0.00000000	     -8.77566740	     -7.88075229	      0.25299970	     23.50043400	     46.48467734	      0.00000000	      0.00000000
     30.89600000	     -5.24888940	     -6.98640984	      3.14892327	      1.01923529	      0.92531178	      0.50449238	      8.93794761	      5.70875763	    -17.37908821	     13.50800522	     13.50800522	     12.66583956	      2.69774755	     -6.61941713	     42.47006261	    -13.27354515	      4.61077997	     29.87452553	     29.87452553	      7.79608076	     -9.56929215	     13.26205746	    -13.82681667	      8.07314338	      5.99980643	     42.50854294	    -15.11623484	      4.66814824	     60.55042058	     45.17447841	      0.00000000	      0.00000000	    -10.57695822	     -7.75620588	      0.55257662	     22.79264299	     46.37851150	      0.00000000	      0.00000000
     30.90757143	     -5.24115531	     -7.04912709	      3.03826101	      1.01895407	      0.92496593	      0.50362090	      8.12811661	      5.86525362	    -17.08681455	     13.02572819	     13.02572819	     12.95604211	      2.80297065	     -6.71137228	     41.88534528	    -13.13640021	      4.27493413	     27.67228272	     27.67228272	      7.83518073	     -8.46248098	     13.68896266	    -13.71281155	      8.10739391	      5.67943507	     43.97662437	    -14.43158114	      4.91264763	     63.76623361	     45.06527432	      0.00000000	      0.00000000	    -12.40253384	     -7.63268275	      0.82778383	     22.45478051	     46.27217603	      0.00000000	      0.00000000
     30.91914286	     -5.26989791	     -7.14625441	      2.94457819	      1.01894547	      0.92447684	      0.50261229	      7.33689758	      6.03802706	    -16.84903118	     12.53866341	     12.53866341	     13.17816133	      2.88311610	     -6.91039885	     41.34383758	    -13.01366530	      3.76617581	     25.90521434	     25.90521434	      7.99563409	     -7.70471449	     14.29355858	    -13.56725688	      8.20691529	      6.01195838	     44.47735935	    -14.82761491	      5.40925779	     69.19962534	     44.88223454	      0.00000000	      0.00000000	    -14.19362881	     -7.70289210	      1.52855380	     23.27216001	     46.05286969	      0.00000000	      0.00000000
     30.93071429	     -5.22264018	     -7.16717510	      2.86002448	      1.01918237	      0.92406918	      0.50143741	      6.46549589	      6.10563917	    -16.62448092	     12.11264698	     12.11264698	     13.53907740	      3.05769897	     -6.94672074	     40.60971506	    -12.79297166	      3.13540535	     24.42919701	     24.42919701	      8.06002662	     -7.44019048	     14.70913847	    -13.39676893	      8.22333204	      5.55789604	     45.85784650	    -13.85435884	      5.51746877	     72.06989323	     44.79579782	      0.00000000	      0.00000000	    -15.86049881	     -7.51305716	      1.88887485	     22.89605484	     45.94188105	      0.00000000	      0.00000000
